# xmcd
#
# Track frame offsets: 
#        150
#        15874
#        34056
#        51511
#        69585
#        86559
#        104552
#        117772
#        134183
#        153190
#        170237
#        183256
#        207821
#        222950
#        275541
#
# Disc length: 4363 seconds
#
# Revision: 10
# Processed by: cddbd v1.5.2PL0 Copyright (c) Steve Scherf et al.
# Submitted via: ExactAudioCopyFreeDBPlugin 1.0
#
DISCID=da11090f
DTITLE=Gunter Gabriel - Sohn aus dem Volk - German Recordings
DYEAR=2009
DGENRE=Pop
TTITLE0=Gunter Gabriel - Ich geb den Rest für dich
TTITLE1=Gunter Gabriel - Blaue Augen
TTITLE2=Gunter Gabriel - 2 Fragen feat. Suzie Kerstgens
TTITLE3=Gunter Gabriel - Das Lied
TTITLE4=Gunter Gabriel - In besseren Tagen
TTITLE5=Gunter Gabriel - Haus am See
TTITLE6=Gunter Gabriel - Vor meiner Zeit
TTITLE7=Gunter Gabriel - Ich bin ein Hobo
TTITLE8=Gunter Gabriel - Nie wieder wart´ ich so lang
TTITLE9=Gunter Gabriel - Schlag, mein Herz
TTITLE10=Gunter Gabriel - Sohn aus dem Volk
TTITLE11=Gunter Gabriel - Heroes feat. The BossHoss
TTITLE12=Gunter Gabriel - Mein Weg
TTITLE13=Gunter Gabriel - Ich bin ein Nichts
TTITLE14=Data - Video-Track
EXTD=YEAR: 2009
EXTT0=
EXTT1=
EXTT2=
EXTT3=
EXTT4=
EXTT5=
EXTT6=
EXTT7=
EXTT8=
EXTT9=
EXTT10=
EXTT11=
EXTT12=
EXTT13=
EXTT14=
PLAYORDER=
